# xmcd
#
# Track frame offsets:
#	150
#	23542
#	41723
#	57960
#	72532
#
# Disc length: 1221 seconds
#
# Revision: 0
# Processed by: cddbd v1.5.2PL0 Copyright (c) Steve Scherf et al.
# Submitted via: EasyCDDAExtractor 12.0.0.1
#
DISCID=3f04c305
DTITLE=Various Artist - Jozek Polok w Naszych Sercach
DYEAR=2010
DGENRE=Country
TTITLE0=Wspomnienie o Jozku
TTITLE1=O Spiewajacych Trabkach
TTITLE2=O Powrocie z Karczmy
TTITLE3=O Szolomie
TTITLE4=Jozik Smiyj Sie Z Nami
EXTD=
EXTT0=
EXTT1=
EXTT2=
EXTT3=
EXTT4=
PLAYORDER=
